<svg width="39" height="39" viewBox="0 0 39 39" fill="none" xmlns="http://www.w3.org/2000/svg">
<g filter="url(#filter0_d_5176_315)">
<path d="M12.9441 21.0546C12.7362 20.8335 12.6022 20.5532 12.5607 20.2525C12.5193 19.9518 12.5723 19.6457 12.7125 19.3765C12.8588 19.1031 13.0832 18.8797 13.3586 18.7359L15.1844 17.8442C15.6415 17.617 16.0395 17.2866 16.347 16.8792C16.6545 16.4718 16.863 15.9985 16.9561 15.4966L17.3108 13.4704C17.3743 13.1693 17.5307 12.8957 17.758 12.6881C17.9852 12.4806 18.2719 12.3495 18.5775 12.3135C18.8832 12.2774 19.1925 12.3382 19.4618 12.4872C19.7311 12.6362 19.9468 12.8659 20.0786 13.144L20.9721 14.972C21.1992 15.4293 21.5296 15.8275 21.9371 16.1352C22.3446 16.4429 22.8181 16.6516 23.3202 16.7448L25.3429 17.1027C25.6421 17.1641 25.9147 17.3172 26.1229 17.5407C26.331 17.7642 26.4643 18.047 26.5042 18.3498C26.5441 18.6525 26.4886 18.9602 26.3454 19.23C26.2023 19.4998 25.9786 19.7183 25.7055 19.855L23.8441 20.7659C23.3999 20.9914 23.0127 21.3146 22.7115 21.7113C22.4104 22.108 22.2032 22.5679 22.1055 23.0563L21.7548 25.0805C21.6931 25.3796 21.5399 25.652 21.3164 25.8601C21.0928 26.0681 20.81 26.2015 20.5073 26.2415C20.2045 26.2816 19.8968 26.2264 19.6268 26.0836C19.3569 25.9408 19.1381 25.7175 19.0008 25.4448L18.1117 23.6175C17.8839 23.1579 17.5513 22.758 17.1408 22.4503C16.7303 22.1425 16.2533 21.9354 15.7481 21.8455L13.7212 21.4882C13.4229 21.4278 13.1514 21.2756 12.9441 21.0546Z" fill="#358BB9"/>
</g>
<defs>
<filter id="filter0_d_5176_315" x="0.546997" y="0.303467" width="37.9697" height="37.9507" filterUnits="userSpaceOnUse" color-interpolation-filters="sRGB">
<feFlood flood-opacity="0" result="BackgroundImageFix"/>
<feColorMatrix in="SourceAlpha" type="matrix" values="0 0 0 0 0 0 0 0 0 0 0 0 0 0 0 0 0 0 127 0" result="hardAlpha"/>
<feOffset/>
<feGaussianBlur stdDeviation="6"/>
<feComposite in2="hardAlpha" operator="out"/>
<feColorMatrix type="matrix" values="0 0 0 0 0.532812 0 0 0 0 0.184062 0 0 0 0 0.590937 0 0 0 0.35 0"/>
<feBlend mode="normal" in2="BackgroundImageFix" result="effect1_dropShadow_5176_315"/>
<feBlend mode="normal" in="SourceGraphic" in2="effect1_dropShadow_5176_315" result="shape"/>
</filter>
</defs>
</svg>
